<mxfile host="drawio-plugin" modified="2021-11-03T15:18:06.740Z" agent="5.0 (Macintosh; Intel Mac OS X 11_6_0) AppleWebKit/537.36 (KHTML, like Gecko) Chrome/89.0.4389.114 Safari/537.36" etag="If28MG8owIvi7LNB2lJh" version="14.7.4" type="embed" pages="6"><diagram id="zFhUEuqw3_evplceHa17" name="Overview"><mxGraphModel dx="755" dy="552" grid="1" gridSize="10" guides="1" tooltips="1" connect="1" arrows="1" fold="1" page="1" pageScale="1" pageWidth="1169" pageHeight="827" background="none" math="0" shadow="0"><root><mxCell id="8fg_gyQLCPc00cHsd0tz-0"/><mxCell id="8fg_gyQLCPc00cHsd0tz-1" parent="8fg_gyQLCPc00cHsd0tz-0"/><mxCell id="fXOTAZr0dimL2IfCYoFU-1" value="kubectl" style="rounded=1;whiteSpace=wrap;html=1;shadow=1;comic=1;glass=0;fontSize=16;" parent="8fg_gyQLCPc00cHsd0tz-1" vertex="1"><mxGeometry x="320" y="145" width="122" height="60" as="geometry"/></mxCell><mxCell id="fXOTAZr0dimL2IfCYoFU-2" value="kubectl-koo" style="rounded=0;whiteSpace=wrap;html=1;comic=1;shadow=1;fontSize=16;" parent="8fg_gyQLCPc00cHsd0tz-1" vertex="1"><mxGeometry x="317" y="300" width="120" height="60" as="geometry"/></mxCell><mxCell id="fXOTAZr0dimL2IfCYoFU-7" value="Kubernetes &lt;br&gt;API Server" style="rounded=1;whiteSpace=wrap;html=1;shadow=1;comic=1;fontSize=16;" parent="8fg_gyQLCPc00cHsd0tz-1" vertex="1"><mxGeometry x="550" y="130" width="200" height="90" as="geometry"/></mxCell><mxCell id="fXOTAZr0dimL2IfCYoFU-8" value="koo-manager" style="rounded=0;whiteSpace=wrap;html=1;comic=1;shadow=1;fontSize=16;" parent="8fg_gyQLCPc00cHsd0tz-1" vertex="1"><mxGeometry x="560" y="290" width="180" height="90" as="geometry"/></mxCell><mxCell id="fXOTAZr0dimL2IfCYoFU-10" value="" style="html=1;shadow=1;dashed=0;align=center;verticalAlign=middle;shape=mxgraph.arrows2.arrow;dy=0.6;dx=40;notch=0;rounded=0;comic=1;" parent="8fg_gyQLCPc00cHsd0tz-1" vertex="1"><mxGeometry x="450" y="154" width="90" height="40" as="geometry"/></mxCell><mxCell id="fXOTAZr0dimL2IfCYoFU-11" value="" style="html=1;shadow=0;dashed=0;align=center;verticalAlign=middle;shape=mxgraph.arrows2.arrow;dy=0.6;dx=40;notch=0;rounded=1;comic=1;" parent="8fg_gyQLCPc00cHsd0tz-1" vertex="1"><mxGeometry x="450" y="305" width="95" height="50" as="geometry"/></mxCell><mxCell id="fXOTAZr0dimL2IfCYoFU-15" value="" style="html=1;shadow=0;dashed=0;align=center;verticalAlign=middle;shape=mxgraph.arrows2.arrow;dy=0.56;dx=23;direction=south;notch=0;rounded=1;comic=1;" parent="8fg_gyQLCPc00cHsd0tz-1" vertex="1"><mxGeometry x="621" y="230" width="50" height="50" as="geometry"/></mxCell><mxCell id="fXOTAZr0dimL2IfCYoFU-17" value="" style="html=1;shadow=0;dashed=0;align=center;verticalAlign=middle;shape=mxgraph.arrows2.arrow;dy=0.56;dx=23;direction=south;notch=0;rounded=1;comic=1;" parent="8fg_gyQLCPc00cHsd0tz-1" vertex="1"><mxGeometry x="352" y="220" width="50" height="60" as="geometry"/></mxCell><mxCell id="qDXQ5ua_mpbQLhc67me7-2" value="LDAP" style="shape=cylinder;whiteSpace=wrap;html=1;boundedLbl=1;backgroundOutline=1;rounded=1;shadow=1;glass=0;comic=1;fontSize=16;" parent="8fg_gyQLCPc00cHsd0tz-1" vertex="1"><mxGeometry x="550" y="450" width="60" height="60" as="geometry"/></mxCell><mxCell id="qDXQ5ua_mpbQLhc67me7-5" value="CRD" style="shape=cylinder;whiteSpace=wrap;html=1;boundedLbl=1;backgroundOutline=1;rounded=1;shadow=1;glass=0;comic=1;fontSize=16;" parent="8fg_gyQLCPc00cHsd0tz-1" vertex="1"><mxGeometry x="620" y="450" width="60" height="60" as="geometry"/></mxCell><mxCell id="qDXQ5ua_mpbQLhc67me7-6" value="LDAP" style="shape=cylinder;whiteSpace=wrap;html=1;boundedLbl=1;backgroundOutline=1;rounded=1;shadow=1;glass=0;comic=1;fontSize=16;" parent="8fg_gyQLCPc00cHsd0tz-1" vertex="1"><mxGeometry x="690" y="450" width="60" height="60" as="geometry"/></mxCell><mxCell id="qDXQ5ua_mpbQLhc67me7-7" value="Identity providers" style="rounded=1;whiteSpace=wrap;html=1;shadow=0;glass=0;comic=0;fontSize=16;fillColor=none;dashed=1;labelPosition=center;verticalLabelPosition=bottom;align=center;verticalAlign=top;" parent="8fg_gyQLCPc00cHsd0tz-1" vertex="1"><mxGeometry x="535" y="440" width="230" height="80" as="geometry"/></mxCell><mxCell id="qDXQ5ua_mpbQLhc67me7-8" value="" style="html=1;shadow=0;dashed=0;align=center;verticalAlign=middle;shape=mxgraph.arrows2.arrow;dy=0.6;dx=30.89;direction=south;notch=0;rounded=1;glass=0;comic=0;fillColor=none;fontSize=16;" parent="8fg_gyQLCPc00cHsd0tz-1" vertex="1"><mxGeometry x="570" y="387" width="20" height="46" as="geometry"/></mxCell><mxCell id="qDXQ5ua_mpbQLhc67me7-9" value="" style="html=1;shadow=0;dashed=0;align=center;verticalAlign=middle;shape=mxgraph.arrows2.arrow;dy=0.6;dx=30.89;direction=south;notch=0;rounded=1;glass=0;comic=0;fillColor=none;fontSize=16;" parent="8fg_gyQLCPc00cHsd0tz-1" vertex="1"><mxGeometry x="638" y="388" width="20" height="46" as="geometry"/></mxCell><mxCell id="qDXQ5ua_mpbQLhc67me7-10" value="" style="html=1;shadow=0;dashed=0;align=center;verticalAlign=middle;shape=mxgraph.arrows2.arrow;dy=0.6;dx=30.89;direction=south;notch=0;rounded=1;glass=0;comic=0;fillColor=none;fontSize=16;" parent="8fg_gyQLCPc00cHsd0tz-1" vertex="1"><mxGeometry x="710" y="387" width="20" height="46" as="geometry"/></mxCell></root></mxGraphModel></diagram><diagram name="Installation1" id="FMl7w7s3Fj342dk29Gb0"><mxGraphModel dx="755" dy="552" grid="0" gridSize="10" guides="1" tooltips="1" connect="1" arrows="1" fold="1" page="1" pageScale="1" pageWidth="1169" pageHeight="827" math="0" shadow="0"><root><mxCell id="7MzowFs_7fg89zZ6Jsso-0"/><mxCell id="7MzowFs_7fg89zZ6Jsso-1" parent="7MzowFs_7fg89zZ6Jsso-0"/><mxCell id="thhIB8dBhMuzjdwIR3bj-10" value="Identity provider" style="rounded=1;whiteSpace=wrap;html=1;shadow=0;glass=0;comic=0;fontSize=16;fillColor=none;labelPosition=center;verticalLabelPosition=bottom;align=center;verticalAlign=top;" parent="7MzowFs_7fg89zZ6Jsso-1" vertex="1"><mxGeometry x="585" y="560" width="130" height="80" as="geometry"/></mxCell><mxCell id="7MzowFs_7fg89zZ6Jsso-2" value="kubectl-koo" style="rounded=0;whiteSpace=wrap;html=1;comic=1;shadow=1;fontSize=16;spacingTop=0;dashed=1;fillColor=#CCCCCC;" parent="7MzowFs_7fg89zZ6Jsso-1" vertex="1"><mxGeometry x="300" y="397" width="140" height="70" as="geometry"/></mxCell><mxCell id="7MzowFs_7fg89zZ6Jsso-3" value="Kubernetes &lt;br&gt;API Server" style="rounded=1;whiteSpace=wrap;html=1;shadow=1;comic=1;fontSize=16;labelPosition=center;verticalLabelPosition=middle;align=center;verticalAlign=middle;spacingTop=-54;" parent="7MzowFs_7fg89zZ6Jsso-1" vertex="1"><mxGeometry x="514" y="148" width="287" height="140.02" as="geometry"/></mxCell><mxCell id="7MzowFs_7fg89zZ6Jsso-4" value="koo-manager" style="rounded=0;whiteSpace=wrap;html=1;comic=1;shadow=1;fontSize=16;spacingBottom=0;fillColor=#CCCCCC;" parent="7MzowFs_7fg89zZ6Jsso-1" vertex="1"><mxGeometry x="540" y="370" width="250" height="130" as="geometry"/></mxCell><mxCell id="7MzowFs_7fg89zZ6Jsso-5" value="&lt;span style=&quot;text-align: left&quot;&gt;Webhook&amp;nbsp;&lt;br&gt;endpoint&lt;/span&gt;" style="ellipse;whiteSpace=wrap;html=1;aspect=fixed;fillColor=#CCCCCC;" parent="7MzowFs_7fg89zZ6Jsso-1" vertex="1"><mxGeometry x="638" y="337" width="61" height="61" as="geometry"/></mxCell><mxCell id="7MzowFs_7fg89zZ6Jsso-6" value="Auth&lt;br&gt;endpoint" style="ellipse;whiteSpace=wrap;html=1;aspect=fixed;fillColor=#CCCCCC;" parent="7MzowFs_7fg89zZ6Jsso-1" vertex="1"><mxGeometry x="510" y="403" width="60" height="60" as="geometry"/></mxCell><mxCell id="7MzowFs_7fg89zZ6Jsso-7" value="Authentication webhook" style="rounded=0;whiteSpace=wrap;html=1;fillColor=#FFFFFF;comic=1;dashed=1;" parent="7MzowFs_7fg89zZ6Jsso-1" vertex="1"><mxGeometry x="580" y="238.02" width="80" height="40" as="geometry"/></mxCell><mxCell id="7MzowFs_7fg89zZ6Jsso-8" value="Validatiing webhook" style="rounded=0;whiteSpace=wrap;html=1;fillColor=#FFFFFF;comic=1;" parent="7MzowFs_7fg89zZ6Jsso-1" vertex="1"><mxGeometry x="675" y="238.02" width="80" height="40" as="geometry"/></mxCell><mxCell id="7MzowFs_7fg89zZ6Jsso-9" value="" style="endArrow=classic;html=1;exitX=0.5;exitY=1;exitDx=0;exitDy=0;strokeWidth=2;dashed=1;dashPattern=1 1;" parent="7MzowFs_7fg89zZ6Jsso-1" source="7MzowFs_7fg89zZ6Jsso-7" target="7MzowFs_7fg89zZ6Jsso-5" edge="1"><mxGeometry width="50" height="50" relative="1" as="geometry"><mxPoint x="785" y="308.02" as="sourcePoint"/><mxPoint x="677.98" y="337" as="targetPoint"/></mxGeometry></mxCell><mxCell id="7MzowFs_7fg89zZ6Jsso-10" value="" style="endArrow=classic;html=1;exitX=0.5;exitY=1;exitDx=0;exitDy=0;strokeWidth=3;entryX=0.644;entryY=0.028;entryDx=0;entryDy=0;entryPerimeter=0;" parent="7MzowFs_7fg89zZ6Jsso-1" source="7MzowFs_7fg89zZ6Jsso-8" target="7MzowFs_7fg89zZ6Jsso-5" edge="1"><mxGeometry width="50" height="50" relative="1" as="geometry"><mxPoint x="485" y="288.02" as="sourcePoint"/><mxPoint x="680" y="336" as="targetPoint"/></mxGeometry></mxCell><mxCell id="7MzowFs_7fg89zZ6Jsso-11" value="" style="endArrow=classic;html=1;exitX=1;exitY=0.5;exitDx=0;exitDy=0;entryX=0;entryY=0.5;entryDx=0;entryDy=0;strokeWidth=2;dashed=1;dashPattern=1 1;" parent="7MzowFs_7fg89zZ6Jsso-1" source="7MzowFs_7fg89zZ6Jsso-2" edge="1"><mxGeometry width="50" height="50" relative="1" as="geometry"><mxPoint x="585" y="307" as="sourcePoint"/><mxPoint x="510" y="432" as="targetPoint"/></mxGeometry></mxCell><mxCell id="7MzowFs_7fg89zZ6Jsso-20" value="" style="endArrow=none;html=1;exitX=0.726;exitY=0.943;exitDx=0;exitDy=0;fillColor=#ffe6cc;strokeColor=#d79b00;strokeWidth=1;exitPerimeter=0;entryX=0;entryY=0;entryDx=0;entryDy=0;" parent="7MzowFs_7fg89zZ6Jsso-1" edge="1"><mxGeometry width="50" height="50" relative="1" as="geometry"><mxPoint x="277.94000000000005" y="356.01" as="sourcePoint"/><mxPoint x="321" y="390" as="targetPoint"/></mxGeometry></mxCell><mxCell id="7MzowFs_7fg89zZ6Jsso-24" value="" style="endArrow=none;html=1;exitX=0.954;exitY=0.73;exitDx=0;exitDy=0;fillColor=#ffe6cc;strokeColor=#d79b00;strokeWidth=1;entryX=0;entryY=0.5;entryDx=0;entryDy=0;exitPerimeter=0;" parent="7MzowFs_7fg89zZ6Jsso-1" edge="1"><mxGeometry width="50" height="50" relative="1" as="geometry"><mxPoint x="472.98" y="205.70000000000005" as="sourcePoint"/><mxPoint x="510" y="220" as="targetPoint"/></mxGeometry></mxCell><mxCell id="thhIB8dBhMuzjdwIR3bj-8" value="CRD" style="shape=cylinder;whiteSpace=wrap;html=1;boundedLbl=1;backgroundOutline=1;rounded=1;shadow=1;glass=0;comic=1;fontSize=16;fillColor=#CCCCCC;" parent="7MzowFs_7fg89zZ6Jsso-1" vertex="1"><mxGeometry x="618" y="570" width="60" height="60" as="geometry"/></mxCell><mxCell id="Oh0iMjAgLQjVcUPWCMFD-0" value="" style="html=1;shadow=0;dashed=0;align=center;verticalAlign=middle;shape=mxgraph.arrows2.arrow;dy=0.6;dx=30.89;direction=south;notch=0;rounded=1;glass=0;comic=0;fillColor=none;fontSize=16;" parent="7MzowFs_7fg89zZ6Jsso-1" vertex="1"><mxGeometry x="638" y="510" width="20" height="46" as="geometry"/></mxCell><mxCell id="5UcRYyL_OIvHfdSqenM--0" value="&lt;b&gt;Configuration:&lt;/b&gt;&lt;br&gt;configMap:&lt;br&gt;&lt;span&gt;koo-system:mgrconfig&lt;/span&gt;" style="rounded=1;whiteSpace=wrap;html=1;fillColor=#CCCCCC;" parent="7MzowFs_7fg89zZ6Jsso-1" vertex="1"><mxGeometry x="728" y="471" width="123" height="52" as="geometry"/></mxCell><mxCell id="-cQN7wutoKe_lCYTM7Or-0" value="&lt;font style=&quot;font-size: 12px&quot;&gt;&lt;b&gt;Configuration:&lt;/b&gt;&lt;br&gt;/etc/kubernetes/manifests/kube-apiserver.yaml&lt;/font&gt;" style="rounded=1;whiteSpace=wrap;html=1;fillColor=#EEEEEE;dashed=1;" parent="7MzowFs_7fg89zZ6Jsso-1" vertex="1"><mxGeometry x="653.5" y="113" width="272" height="53" as="geometry"/></mxCell><mxCell id="URjj5P_hPw2Gb5C6m7Nw-0" value="kubectl" style="rounded=1;whiteSpace=wrap;html=1;shadow=1;comic=1;glass=0;fontSize=16;dashed=1;" parent="7MzowFs_7fg89zZ6Jsso-1" vertex="1"><mxGeometry x="309" y="190" width="122" height="60" as="geometry"/></mxCell><mxCell id="URjj5P_hPw2Gb5C6m7Nw-1" value="&lt;font style=&quot;font-size: 12px&quot;&gt;&lt;b&gt;Configuration:&lt;/b&gt;&lt;br&gt;kubeconfig&lt;/font&gt;" style="rounded=1;whiteSpace=wrap;html=1;fillColor=#EEEEEE;dashed=1;" parent="7MzowFs_7fg89zZ6Jsso-1" vertex="1"><mxGeometry x="246" y="234" width="92" height="174.98" as="geometry"/></mxCell><mxCell id="URjj5P_hPw2Gb5C6m7Nw-2" value="" style="endArrow=classic;html=1;strokeWidth=2;dashed=1;dashPattern=1 1;" parent="7MzowFs_7fg89zZ6Jsso-1" source="URjj5P_hPw2Gb5C6m7Nw-0" target="7MzowFs_7fg89zZ6Jsso-2" edge="1"><mxGeometry width="50" height="50" relative="1" as="geometry"><mxPoint x="450" y="442" as="sourcePoint"/><mxPoint x="520" y="442" as="targetPoint"/></mxGeometry></mxCell><mxCell id="URjj5P_hPw2Gb5C6m7Nw-3" value="" style="endArrow=classic;html=1;strokeWidth=2;dashed=1;dashPattern=1 1;entryX=0;entryY=0.5;entryDx=0;entryDy=0;" parent="7MzowFs_7fg89zZ6Jsso-1" target="URjj5P_hPw2Gb5C6m7Nw-4" edge="1"><mxGeometry width="50" height="50" relative="1" as="geometry"><mxPoint x="432" y="220" as="sourcePoint"/><mxPoint x="552" y="225" as="targetPoint"/></mxGeometry></mxCell><mxCell id="URjj5P_hPw2Gb5C6m7Nw-4" value="API&lt;br&gt;endpoint" style="ellipse;whiteSpace=wrap;html=1;aspect=fixed;fillColor=#FFFFFF;" parent="7MzowFs_7fg89zZ6Jsso-1" vertex="1"><mxGeometry x="491" y="193" width="54" height="54" as="geometry"/></mxCell></root></mxGraphModel></diagram><diagram id="uDmQaYtd8bSL2rDeCBfh" name="Sequence1"><mxGraphModel dx="755" dy="552" grid="1" gridSize="10" guides="1" tooltips="1" connect="1" arrows="1" fold="1" page="1" pageScale="1" pageWidth="827" pageHeight="1169" math="0" shadow="0"><root><mxCell id="0"/><mxCell id="1" parent="0"/><mxCell id="okscIR22h2rkRe5IZIae-38" value="The Webhook Token &lt;br&gt;Authentication&amp;nbsp;issue&lt;br&gt;an HTTP POST with&lt;br&gt;&amp;nbsp;TokenReview command" style="html=1;verticalAlign=bottom;endArrow=block;" parent="1" edge="1"><mxGeometry relative="1" as="geometry"><mxPoint x="650.5" y="504" as="sourcePoint"/><mxPoint x="510" y="504" as="targetPoint"/></mxGeometry></mxCell><mxCell id="okscIR22h2rkRe5IZIae-27" value="HTTP GET: getToken" style="html=1;verticalAlign=bottom;endArrow=block;entryX=0;entryY=0;" parent="1" edge="1"><mxGeometry x="-0.0264" y="4" relative="1" as="geometry"><mxPoint x="365.5" y="284.0000000000007" as="sourcePoint"/><mxPoint as="offset"/><mxPoint x="498" y="284.0000000000007" as="targetPoint"/></mxGeometry></mxCell><mxCell id="okscIR22h2rkRe5IZIae-39" value="koomgr validate the&lt;br&gt;token and provide &lt;br&gt;user's name and &lt;br&gt;groups in the response." style="html=1;verticalAlign=bottom;endArrow=open;dashed=1;endSize=8;entryX=0.1;entryY=0.586;entryDx=0;entryDy=0;entryPerimeter=0;" parent="1" edge="1"><mxGeometry x="0.0105" relative="1" as="geometry"><mxPoint x="647" y="562.5799999999999" as="targetPoint"/><mxPoint x="508" y="562.5799999999999" as="sourcePoint"/><mxPoint as="offset"/></mxGeometry></mxCell><mxCell id="okscIR22h2rkRe5IZIae-4" value="User issue a &lt;br&gt;kubctl command &lt;br&gt;(i.e 'kubectl get nodes)" style="html=1;verticalAlign=bottom;endArrow=block;entryX=0;entryY=0;" parent="1" edge="1"><mxGeometry relative="1" as="geometry"><mxPoint x="73" y="159" as="sourcePoint"/><mxPoint x="235" y="159.0000000000009" as="targetPoint"/></mxGeometry></mxCell><mxCell id="okscIR22h2rkRe5IZIae-16" value="koocli return the&lt;br&gt;token to kubectl &lt;br&gt;by printing on&lt;br&gt;stdout and exit" style="html=1;verticalAlign=bottom;endArrow=open;dashed=1;endSize=8;entryX=1;entryY=0.415;entryDx=0;entryDy=0;entryPerimeter=0;" parent="1" source="okscIR22h2rkRe5IZIae-6" edge="1"><mxGeometry x="0.0871" y="-2" relative="1" as="geometry"><mxPoint x="245" y="401.95000000000005" as="targetPoint"/><mxPoint x="350" y="402" as="sourcePoint"/><mxPoint as="offset"/></mxGeometry></mxCell><mxCell id="okscIR22h2rkRe5IZIae-15" value="kubeclt launch&lt;br&gt;the&amp;nbsp;koocli &lt;br&gt;credential plugin" style="html=1;verticalAlign=bottom;endArrow=block;entryX=-0.1;entryY=0.032;entryDx=0;entryDy=0;entryPerimeter=0;" parent="1" target="okscIR22h2rkRe5IZIae-14" edge="1"><mxGeometry relative="1" as="geometry"><mxPoint x="239.5" y="178.00000000000023" as="sourcePoint"/><mxPoint x="345" y="178.00000000000023" as="targetPoint"/></mxGeometry></mxCell><mxCell id="okscIR22h2rkRe5IZIae-1" value="User" style="shape=umlLifeline;participant=umlActor;perimeter=lifelinePerimeter;whiteSpace=wrap;html=1;container=1;collapsible=0;recursiveResize=0;verticalAlign=top;spacingTop=36;labelBackgroundColor=#ffffff;outlineConnect=0;size=40;" parent="1" vertex="1"><mxGeometry x="67" y="70" width="20" height="610" as="geometry"/></mxCell><mxCell id="okscIR22h2rkRe5IZIae-23" value="" style="html=1;points=[];perimeter=orthogonalPerimeter;" parent="okscIR22h2rkRe5IZIae-1" vertex="1"><mxGeometry x="5" y="70" width="10" height="540" as="geometry"/></mxCell><mxCell id="okscIR22h2rkRe5IZIae-2" value=",kubectl" style="shape=umlLifeline;participant=umlEntity;perimeter=lifelinePerimeter;whiteSpace=wrap;html=1;container=1;collapsible=0;recursiveResize=0;verticalAlign=top;spacingTop=36;labelBackgroundColor=#ffffff;outlineConnect=0;" parent="1" vertex="1"><mxGeometry x="220" y="70" width="40" height="590" as="geometry"/></mxCell><mxCell id="okscIR22h2rkRe5IZIae-9" value="" style="html=1;points=[];perimeter=orthogonalPerimeter;" parent="okscIR22h2rkRe5IZIae-2" vertex="1"><mxGeometry x="15" y="110" width="10" height="40" as="geometry"/></mxCell><mxCell id="okscIR22h2rkRe5IZIae-3" value="" style="html=1;points=[];perimeter=orthogonalPerimeter;" parent="okscIR22h2rkRe5IZIae-2" vertex="1"><mxGeometry x="15" y="80" width="10" height="490" as="geometry"/></mxCell><mxCell id="okscIR22h2rkRe5IZIae-5" value="kubectl display the result&lt;br&gt;and exit" style="html=1;verticalAlign=bottom;endArrow=open;dashed=1;endSize=8;exitX=0;exitY=0.95;entryX=0.9;entryY=0.943;entryDx=0;entryDy=0;entryPerimeter=0;" parent="1" edge="1"><mxGeometry relative="1" as="geometry"><mxPoint x="81" y="627.22" as="targetPoint"/><mxPoint x="235" y="628.4999999999989" as="sourcePoint"/></mxGeometry></mxCell><mxCell id="okscIR22h2rkRe5IZIae-7" value="koomgr" style="shape=umlLifeline;participant=umlEntity;perimeter=lifelinePerimeter;whiteSpace=wrap;html=1;container=1;collapsible=0;recursiveResize=0;verticalAlign=top;spacingTop=36;labelBackgroundColor=#ffffff;outlineConnect=0;" parent="1" vertex="1"><mxGeometry x="483" y="70" width="40" height="520" as="geometry"/></mxCell><mxCell id="okscIR22h2rkRe5IZIae-37" value="" style="html=1;points=[];perimeter=orthogonalPerimeter;" parent="okscIR22h2rkRe5IZIae-7" vertex="1"><mxGeometry x="15" y="392" width="10" height="80" as="geometry"/></mxCell><mxCell id="okscIR22h2rkRe5IZIae-31" value="" style="html=1;points=[];perimeter=orthogonalPerimeter;" parent="okscIR22h2rkRe5IZIae-7" vertex="1"><mxGeometry x="15" y="280" width="10" height="40" as="geometry"/></mxCell><mxCell id="okscIR22h2rkRe5IZIae-32" value="koomgr&amp;nbsp;check&amp;nbsp;user's&lt;br&gt;credential&amp;nbsp;and grant&lt;br&gt;a&amp;nbsp;new bearer&lt;br&gt;token" style="edgeStyle=orthogonalEdgeStyle;html=1;align=left;spacingLeft=2;endArrow=block;rounded=0;entryX=1;entryY=0;" parent="okscIR22h2rkRe5IZIae-7" edge="1"><mxGeometry x="0.084" y="2" relative="1" as="geometry"><mxPoint x="19.5" y="230" as="sourcePoint"/><Array as="points"><mxPoint x="45" y="230"/><mxPoint x="45" y="250"/></Array><mxPoint x="25" y="250" as="targetPoint"/><mxPoint as="offset"/></mxGeometry></mxCell><mxCell id="okscIR22h2rkRe5IZIae-26" value="" style="html=1;points=[];perimeter=orthogonalPerimeter;" parent="okscIR22h2rkRe5IZIae-7" vertex="1"><mxGeometry x="15" y="70" width="10" height="450" as="geometry"/></mxCell><mxCell id="okscIR22h2rkRe5IZIae-8" value="API Server" style="shape=umlLifeline;participant=umlEntity;perimeter=lifelinePerimeter;whiteSpace=wrap;html=1;container=1;collapsible=0;recursiveResize=0;verticalAlign=top;spacingTop=36;labelBackgroundColor=#ffffff;outlineConnect=0;" parent="1" vertex="1"><mxGeometry x="631" y="70" width="40" height="620" as="geometry"/></mxCell><mxCell id="N2LFytJpAijW4gLvLwDp-12" value="API Server validate&lt;br&gt;if user is allowed by &lt;br&gt;RBAC to perform &lt;br&gt;the requested action" style="edgeStyle=orthogonalEdgeStyle;html=1;align=left;spacingLeft=2;endArrow=block;rounded=0;entryX=1;entryY=0;" parent="okscIR22h2rkRe5IZIae-8" target="N2LFytJpAijW4gLvLwDp-11" edge="1"><mxGeometry relative="1" as="geometry"><mxPoint x="20" y="510" as="sourcePoint"/><Array as="points"><mxPoint x="45" y="510"/></Array></mxGeometry></mxCell><mxCell id="N2LFytJpAijW4gLvLwDp-11" value="" style="html=1;points=[];perimeter=orthogonalPerimeter;" parent="okscIR22h2rkRe5IZIae-8" vertex="1"><mxGeometry x="15" y="530" width="10" height="40" as="geometry"/></mxCell><mxCell id="okscIR22h2rkRe5IZIae-34" value="" style="html=1;points=[];perimeter=orthogonalPerimeter;" parent="okscIR22h2rkRe5IZIae-8" vertex="1"><mxGeometry x="15" y="70" width="10" height="540" as="geometry"/></mxCell><mxCell id="okscIR22h2rkRe5IZIae-25" value="User provides its credential" style="html=1;verticalAlign=bottom;endArrow=open;dashed=1;endSize=8;exitX=1.4;exitY=0.304;exitDx=0;exitDy=0;exitPerimeter=0;" parent="1" edge="1"><mxGeometry x="-0.4599" relative="1" as="geometry"><mxPoint x="360" y="265" as="targetPoint"/><mxPoint x="86" y="264.79999999999995" as="sourcePoint"/><mxPoint as="offset"/></mxGeometry></mxCell><mxCell id="okscIR22h2rkRe5IZIae-28" value="Token in&lt;br&gt;HTTP Response" style="html=1;verticalAlign=bottom;endArrow=open;dashed=1;endSize=8;exitX=0.2;exitY=0.332;exitDx=0;exitDy=0;exitPerimeter=0;" parent="1" edge="1"><mxGeometry x="0.2188" y="-9" relative="1" as="geometry"><mxPoint x="372" y="345" as="targetPoint"/><mxPoint x="500" y="344.9200000000001" as="sourcePoint"/><Array as="points"><mxPoint x="422" y="345"/></Array><mxPoint x="8" y="4" as="offset"/></mxGeometry></mxCell><mxCell id="okscIR22h2rkRe5IZIae-35" value="kubectl issue the&lt;br&gt;appropriate API call&lt;br&gt;with the provided&lt;br&gt;bearer token" style="html=1;verticalAlign=bottom;endArrow=block;entryX=-0.1;entryY=0.119;entryDx=0;entryDy=0;entryPerimeter=0;" parent="1" edge="1"><mxGeometry x="0.675" relative="1" as="geometry"><mxPoint x="245" y="438" as="sourcePoint"/><mxPoint x="645" y="439.0419999999999" as="targetPoint"/><mxPoint as="offset"/></mxGeometry></mxCell><mxCell id="okscIR22h2rkRe5IZIae-36" value="API Server return the user action result" style="html=1;verticalAlign=bottom;endArrow=open;dashed=1;endSize=8;exitX=0;exitY=0.95;" parent="1" edge="1"><mxGeometry x="0.3434" relative="1" as="geometry"><mxPoint x="250" y="615" as="targetPoint"/><mxPoint x="646" y="615" as="sourcePoint"/><mxPoint as="offset"/></mxGeometry></mxCell><mxCell id="okscIR22h2rkRe5IZIae-24" value="koocli prompt for login &lt;br&gt;and password" style="html=1;verticalAlign=bottom;endArrow=block;entryX=1.1;entryY=0.209;entryDx=0;entryDy=0;entryPerimeter=0;" parent="1" edge="1"><mxGeometry x="0.4549" y="-4" relative="1" as="geometry"><mxPoint x="365.5" y="235.76" as="sourcePoint"/><mxPoint x="83" y="235.76" as="targetPoint"/><mxPoint x="1" as="offset"/></mxGeometry></mxCell><mxCell id="okscIR22h2rkRe5IZIae-6" value="koocli" style="shape=umlLifeline;participant=umlEntity;perimeter=lifelinePerimeter;whiteSpace=wrap;html=1;container=1;collapsible=0;recursiveResize=0;verticalAlign=top;spacingTop=36;labelBackgroundColor=#ffffff;outlineConnect=0;" parent="1" vertex="1"><mxGeometry x="346" y="70" width="40" height="350" as="geometry"/></mxCell><mxCell id="N2LFytJpAijW4gLvLwDp-2" value="koocli check if&lt;br&gt;&amp;nbsp;a token is already&lt;br&gt;present in local&lt;br&gt;user store. &lt;br&gt;NO on this case" style="edgeStyle=orthogonalEdgeStyle;html=1;align=left;spacingLeft=2;endArrow=block;rounded=0;entryX=1;entryY=0;" parent="okscIR22h2rkRe5IZIae-6" target="N2LFytJpAijW4gLvLwDp-1" edge="1"><mxGeometry relative="1" as="geometry"><mxPoint x="20" y="120" as="sourcePoint"/><Array as="points"><mxPoint x="45" y="120"/></Array></mxGeometry></mxCell><mxCell id="N2LFytJpAijW4gLvLwDp-1" value="" style="html=1;points=[];perimeter=orthogonalPerimeter;" parent="okscIR22h2rkRe5IZIae-6" vertex="1"><mxGeometry x="15" y="140" width="10" height="40" as="geometry"/></mxCell><mxCell id="okscIR22h2rkRe5IZIae-14" value="" style="html=1;points=[];perimeter=orthogonalPerimeter;" parent="okscIR22h2rkRe5IZIae-6" vertex="1"><mxGeometry x="15" y="100" width="10" height="250" as="geometry"/></mxCell></root></mxGraphModel></diagram><diagram id="wll_EkE8HC_-VYgcex9D" name="Sequence2"><mxGraphModel dx="755" dy="552" grid="1" gridSize="10" guides="1" tooltips="1" connect="1" arrows="1" fold="1" page="1" pageScale="1" pageWidth="1169" pageHeight="827" math="0" shadow="0"><root><mxCell id="1JoGOMmwTnF1FYDx1APA-0"/><mxCell id="1JoGOMmwTnF1FYDx1APA-1" parent="1JoGOMmwTnF1FYDx1APA-0"/><mxCell id="qC_uP9-sPvYXrv6C_MyI-0" value="The Webhook Token &lt;br&gt;Authentication&amp;nbsp;issue&lt;br&gt;an HTTP POST with&lt;br&gt;&amp;nbsp;TokenReview command" style="html=1;verticalAlign=bottom;endArrow=block;" parent="1JoGOMmwTnF1FYDx1APA-1" edge="1"><mxGeometry relative="1" as="geometry"><mxPoint x="650.5" y="404" as="sourcePoint"/><mxPoint x="510" y="404" as="targetPoint"/></mxGeometry></mxCell><mxCell id="qC_uP9-sPvYXrv6C_MyI-2" value="koomgr validate the&lt;br&gt;token and provide &lt;br&gt;user's name and &lt;br&gt;groups in the response." style="html=1;verticalAlign=bottom;endArrow=open;dashed=1;endSize=8;entryX=0.1;entryY=0.586;entryDx=0;entryDy=0;entryPerimeter=0;" parent="1JoGOMmwTnF1FYDx1APA-1" edge="1"><mxGeometry x="0.0105" relative="1" as="geometry"><mxPoint x="647" y="462.5799999999999" as="targetPoint"/><mxPoint x="508" y="462.5799999999999" as="sourcePoint"/><mxPoint as="offset"/></mxGeometry></mxCell><mxCell id="qC_uP9-sPvYXrv6C_MyI-3" value="User issue a &lt;br&gt;kubctl command &lt;br&gt;(i.e 'kubectl get nodes)" style="html=1;verticalAlign=bottom;endArrow=block;entryX=0;entryY=0;" parent="1JoGOMmwTnF1FYDx1APA-1" edge="1"><mxGeometry relative="1" as="geometry"><mxPoint x="73" y="159" as="sourcePoint"/><mxPoint x="235" y="159.0000000000009" as="targetPoint"/></mxGeometry></mxCell><mxCell id="qC_uP9-sPvYXrv6C_MyI-4" value="koocli return the&lt;br&gt;token to kubectl &lt;br&gt;by printing on&lt;br&gt;stdout and exit" style="html=1;verticalAlign=bottom;endArrow=open;dashed=1;endSize=8;entryX=1;entryY=0.415;entryDx=0;entryDy=0;entryPerimeter=0;" parent="1JoGOMmwTnF1FYDx1APA-1" edge="1"><mxGeometry x="0.0871" y="-2" relative="1" as="geometry"><mxPoint x="245" y="301.95000000000005" as="targetPoint"/><mxPoint x="365.5" y="301.95000000000005" as="sourcePoint"/><mxPoint as="offset"/></mxGeometry></mxCell><mxCell id="qC_uP9-sPvYXrv6C_MyI-5" value="kubeclt launch&lt;br&gt;the&amp;nbsp;koocli &lt;br&gt;credential plugin" style="html=1;verticalAlign=bottom;endArrow=block;entryX=0.033;entryY=0.044;entryDx=0;entryDy=0;entryPerimeter=0;" parent="1JoGOMmwTnF1FYDx1APA-1" target="qC_uP9-sPvYXrv6C_MyI-29" edge="1"><mxGeometry relative="1" as="geometry"><mxPoint x="239.5" y="178.00000000000023" as="sourcePoint"/><mxPoint x="345" y="178.00000000000023" as="targetPoint"/></mxGeometry></mxCell><mxCell id="qC_uP9-sPvYXrv6C_MyI-6" value="User" style="shape=umlLifeline;participant=umlActor;perimeter=lifelinePerimeter;whiteSpace=wrap;html=1;container=1;collapsible=0;recursiveResize=0;verticalAlign=top;spacingTop=36;labelBackgroundColor=#ffffff;outlineConnect=0;" parent="1JoGOMmwTnF1FYDx1APA-1" vertex="1"><mxGeometry x="67" y="70" width="20" height="500" as="geometry"/></mxCell><mxCell id="qC_uP9-sPvYXrv6C_MyI-7" value="" style="html=1;points=[];perimeter=orthogonalPerimeter;" parent="qC_uP9-sPvYXrv6C_MyI-6" vertex="1"><mxGeometry x="5" y="70" width="10" height="420" as="geometry"/></mxCell><mxCell id="qC_uP9-sPvYXrv6C_MyI-8" value=",kubectl" style="shape=umlLifeline;participant=umlEntity;perimeter=lifelinePerimeter;whiteSpace=wrap;html=1;container=1;collapsible=0;recursiveResize=0;verticalAlign=top;spacingTop=36;labelBackgroundColor=#ffffff;outlineConnect=0;" parent="1JoGOMmwTnF1FYDx1APA-1" vertex="1"><mxGeometry x="220" y="70" width="40" height="500" as="geometry"/></mxCell><mxCell id="qC_uP9-sPvYXrv6C_MyI-9" value="" style="html=1;points=[];perimeter=orthogonalPerimeter;" parent="qC_uP9-sPvYXrv6C_MyI-8" vertex="1"><mxGeometry x="15" y="110" width="10" height="40" as="geometry"/></mxCell><mxCell id="qC_uP9-sPvYXrv6C_MyI-10" value="" style="html=1;points=[];perimeter=orthogonalPerimeter;" parent="qC_uP9-sPvYXrv6C_MyI-8" vertex="1"><mxGeometry x="15" y="80" width="10" height="410" as="geometry"/></mxCell><mxCell id="qC_uP9-sPvYXrv6C_MyI-11" value="kubectl display the result&lt;br&gt;and exit" style="html=1;verticalAlign=bottom;endArrow=open;dashed=1;endSize=8;exitX=0;exitY=0.95;entryX=0.9;entryY=0.943;entryDx=0;entryDy=0;entryPerimeter=0;" parent="1JoGOMmwTnF1FYDx1APA-1" edge="1"><mxGeometry relative="1" as="geometry"><mxPoint x="81" y="527.22" as="targetPoint"/><mxPoint x="235" y="528.4999999999989" as="sourcePoint"/></mxGeometry></mxCell><mxCell id="qC_uP9-sPvYXrv6C_MyI-12" value="koomgr" style="shape=umlLifeline;participant=umlEntity;perimeter=lifelinePerimeter;whiteSpace=wrap;html=1;container=1;collapsible=0;recursiveResize=0;verticalAlign=top;spacingTop=36;labelBackgroundColor=#ffffff;outlineConnect=0;" parent="1JoGOMmwTnF1FYDx1APA-1" vertex="1"><mxGeometry x="483" y="70" width="40" height="420" as="geometry"/></mxCell><mxCell id="qC_uP9-sPvYXrv6C_MyI-13" value="" style="html=1;points=[];perimeter=orthogonalPerimeter;" parent="qC_uP9-sPvYXrv6C_MyI-12" vertex="1"><mxGeometry x="15" y="292" width="10" height="80" as="geometry"/></mxCell><mxCell id="qC_uP9-sPvYXrv6C_MyI-14" value="" style="html=1;points=[];perimeter=orthogonalPerimeter;" parent="qC_uP9-sPvYXrv6C_MyI-12" vertex="1"><mxGeometry x="15" y="180" width="10" height="40" as="geometry"/></mxCell><mxCell id="qC_uP9-sPvYXrv6C_MyI-16" value="" style="html=1;points=[];perimeter=orthogonalPerimeter;" parent="qC_uP9-sPvYXrv6C_MyI-12" vertex="1"><mxGeometry x="15" y="70" width="10" height="350" as="geometry"/></mxCell><mxCell id="qC_uP9-sPvYXrv6C_MyI-17" value="API Server" style="shape=umlLifeline;participant=umlEntity;perimeter=lifelinePerimeter;whiteSpace=wrap;html=1;container=1;collapsible=0;recursiveResize=0;verticalAlign=top;spacingTop=36;labelBackgroundColor=#ffffff;outlineConnect=0;" parent="1JoGOMmwTnF1FYDx1APA-1" vertex="1"><mxGeometry x="631" y="70" width="40" height="500" as="geometry"/></mxCell><mxCell id="qC_uP9-sPvYXrv6C_MyI-18" value="API Server validate&lt;br&gt;if user is allowed by &lt;br&gt;RBAC to perform &lt;br&gt;the requested action" style="edgeStyle=orthogonalEdgeStyle;html=1;align=left;spacingLeft=2;endArrow=block;rounded=0;entryX=1;entryY=0;" parent="qC_uP9-sPvYXrv6C_MyI-17" target="qC_uP9-sPvYXrv6C_MyI-19" edge="1"><mxGeometry relative="1" as="geometry"><mxPoint x="20" y="410" as="sourcePoint"/><Array as="points"><mxPoint x="45" y="410"/></Array></mxGeometry></mxCell><mxCell id="qC_uP9-sPvYXrv6C_MyI-19" value="" style="html=1;points=[];perimeter=orthogonalPerimeter;" parent="qC_uP9-sPvYXrv6C_MyI-17" vertex="1"><mxGeometry x="15" y="430" width="10" height="40" as="geometry"/></mxCell><mxCell id="qC_uP9-sPvYXrv6C_MyI-20" value="" style="html=1;points=[];perimeter=orthogonalPerimeter;" parent="qC_uP9-sPvYXrv6C_MyI-17" vertex="1"><mxGeometry x="15" y="70" width="10" height="400" as="geometry"/></mxCell><mxCell id="qC_uP9-sPvYXrv6C_MyI-24" value="API Server return the user action result" style="html=1;verticalAlign=bottom;endArrow=open;dashed=1;endSize=8;exitX=0;exitY=0.95;" parent="1JoGOMmwTnF1FYDx1APA-1" edge="1"><mxGeometry x="0.3434" relative="1" as="geometry"><mxPoint x="250" y="515" as="targetPoint"/><mxPoint x="646" y="515" as="sourcePoint"/><mxPoint as="offset"/></mxGeometry></mxCell><mxCell id="qC_uP9-sPvYXrv6C_MyI-26" value="koocli" style="shape=umlLifeline;participant=umlEntity;perimeter=lifelinePerimeter;whiteSpace=wrap;html=1;container=1;collapsible=0;recursiveResize=0;verticalAlign=top;spacingTop=36;labelBackgroundColor=#ffffff;outlineConnect=0;" parent="1JoGOMmwTnF1FYDx1APA-1" vertex="1"><mxGeometry x="346" y="70" width="40" height="260" as="geometry"/></mxCell><mxCell id="qC_uP9-sPvYXrv6C_MyI-33" value="Is the token still&lt;br&gt;&amp;nbsp;valid against the&amp;nbsp;&lt;br&gt;clientTokenTTL&lt;br&gt;YES in this case" style="edgeStyle=orthogonalEdgeStyle;html=1;align=left;spacingLeft=2;endArrow=block;rounded=0;exitX=1.3;exitY=0.292;exitDx=0;exitDy=0;exitPerimeter=0;" parent="qC_uP9-sPvYXrv6C_MyI-26" edge="1"><mxGeometry x="0.3469" y="-10" relative="1" as="geometry"><mxPoint x="28" y="183" as="sourcePoint"/><Array as="points"><mxPoint x="44" y="183"/><mxPoint x="44" y="200"/></Array><mxPoint x="28" y="200" as="targetPoint"/><mxPoint x="10" y="10" as="offset"/></mxGeometry></mxCell><mxCell id="qC_uP9-sPvYXrv6C_MyI-27" value="koocli check if&lt;br&gt;&amp;nbsp;a token is already&lt;br&gt;present in local&lt;br&gt;user store. &lt;br&gt;YES on this case" style="edgeStyle=orthogonalEdgeStyle;html=1;align=left;spacingLeft=2;endArrow=block;rounded=0;entryX=1;entryY=0;" parent="qC_uP9-sPvYXrv6C_MyI-26" target="qC_uP9-sPvYXrv6C_MyI-28" edge="1"><mxGeometry relative="1" as="geometry"><mxPoint x="20" y="120" as="sourcePoint"/><Array as="points"><mxPoint x="45" y="120"/></Array></mxGeometry></mxCell><mxCell id="qC_uP9-sPvYXrv6C_MyI-28" value="" style="html=1;points=[];perimeter=orthogonalPerimeter;" parent="qC_uP9-sPvYXrv6C_MyI-26" vertex="1"><mxGeometry x="15" y="140" width="10" height="40" as="geometry"/></mxCell><mxCell id="qC_uP9-sPvYXrv6C_MyI-29" value="" style="html=1;points=[];perimeter=orthogonalPerimeter;" parent="qC_uP9-sPvYXrv6C_MyI-26" vertex="1"><mxGeometry x="15" y="100" width="10" height="160" as="geometry"/></mxCell><mxCell id="qC_uP9-sPvYXrv6C_MyI-23" value="kubectl issue the&lt;br&gt;appropriate API call&lt;br&gt;with the provided&lt;br&gt;bearer token" style="html=1;verticalAlign=bottom;endArrow=block;entryX=-0.1;entryY=0.119;entryDx=0;entryDy=0;entryPerimeter=0;" parent="1JoGOMmwTnF1FYDx1APA-1" edge="1"><mxGeometry x="0.675" relative="1" as="geometry"><mxPoint x="245" y="338" as="sourcePoint"/><mxPoint x="645" y="339.0419999999999" as="targetPoint"/><mxPoint as="offset"/></mxGeometry></mxCell></root></mxGraphModel></diagram><diagram id="nIRHrARyexCpDZzaV7hD" name="Sequence3"><mxGraphModel dx="755" dy="552" grid="1" gridSize="10" guides="1" tooltips="1" connect="1" arrows="1" fold="1" page="1" pageScale="1" pageWidth="1169" pageHeight="827" math="0" shadow="0"><root><mxCell id="-Lt_0c3Wn9MZElRFij93-0"/><mxCell id="-Lt_0c3Wn9MZElRFij93-1" parent="-Lt_0c3Wn9MZElRFij93-0"/><mxCell id="4XosDFp2N55dHHyUHDbH-2" value="Token valid Response" style="html=1;verticalAlign=bottom;endArrow=open;dashed=1;endSize=8;exitX=0.2;exitY=0.332;exitDx=0;exitDy=0;exitPerimeter=0;" parent="-Lt_0c3Wn9MZElRFij93-1" edge="1"><mxGeometry x="0.2188" y="-9" relative="1" as="geometry"><mxPoint x="375" y="388" as="targetPoint"/><mxPoint x="503" y="387.9200000000001" as="sourcePoint"/><Array as="points"><mxPoint x="425" y="388"/></Array><mxPoint x="8" y="4" as="offset"/></mxGeometry></mxCell><mxCell id="ldH2PU3LFaZfelaNZ9ng-0" value="The Webhook Token &lt;br&gt;Authentication&amp;nbsp;issue&lt;br&gt;an HTTP POST with&lt;br&gt;&amp;nbsp;TokenReview command" style="html=1;verticalAlign=bottom;endArrow=block;" parent="-Lt_0c3Wn9MZElRFij93-1" edge="1"><mxGeometry relative="1" as="geometry"><mxPoint x="650.5" y="513.05" as="sourcePoint"/><mxPoint x="510" y="513.05" as="targetPoint"/></mxGeometry></mxCell><mxCell id="ldH2PU3LFaZfelaNZ9ng-1" value="koomgr validate the&lt;br&gt;token and provide &lt;br&gt;user's name and &lt;br&gt;groups in the response." style="html=1;verticalAlign=bottom;endArrow=open;dashed=1;endSize=8;entryX=0.1;entryY=0.586;entryDx=0;entryDy=0;entryPerimeter=0;" parent="-Lt_0c3Wn9MZElRFij93-1" edge="1"><mxGeometry x="0.0105" relative="1" as="geometry"><mxPoint x="647" y="571.6299999999999" as="targetPoint"/><mxPoint x="508" y="571.6299999999999" as="sourcePoint"/><mxPoint as="offset"/></mxGeometry></mxCell><mxCell id="ldH2PU3LFaZfelaNZ9ng-2" value="User issue a &lt;br&gt;kubctl command &lt;br&gt;(i.e 'kubectl get nodes)" style="html=1;verticalAlign=bottom;endArrow=block;entryX=0;entryY=0;" parent="-Lt_0c3Wn9MZElRFij93-1" edge="1"><mxGeometry relative="1" as="geometry"><mxPoint x="73" y="159" as="sourcePoint"/><mxPoint x="235" y="159.0000000000009" as="targetPoint"/></mxGeometry></mxCell><mxCell id="ldH2PU3LFaZfelaNZ9ng-3" value="koocli return the&lt;br&gt;token to kubectl &lt;br&gt;by printing on&lt;br&gt;stdout and exit" style="html=1;verticalAlign=bottom;endArrow=open;dashed=1;endSize=8;entryX=1;entryY=0.415;entryDx=0;entryDy=0;entryPerimeter=0;" parent="-Lt_0c3Wn9MZElRFij93-1" edge="1"><mxGeometry x="0.0871" y="-2" relative="1" as="geometry"><mxPoint x="245" y="411.00000000000006" as="targetPoint"/><mxPoint x="365.5" y="411.00000000000006" as="sourcePoint"/><mxPoint as="offset"/></mxGeometry></mxCell><mxCell id="ldH2PU3LFaZfelaNZ9ng-4" value="kubeclt launch&lt;br&gt;the&amp;nbsp;koocli &lt;br&gt;credential plugin" style="html=1;verticalAlign=bottom;endArrow=block;entryX=-0.1;entryY=0.032;entryDx=0;entryDy=0;entryPerimeter=0;" parent="-Lt_0c3Wn9MZElRFij93-1" target="ldH2PU3LFaZfelaNZ9ng-24" edge="1"><mxGeometry relative="1" as="geometry"><mxPoint x="239.5" y="178.00000000000023" as="sourcePoint"/><mxPoint x="345" y="178.00000000000023" as="targetPoint"/></mxGeometry></mxCell><mxCell id="ldH2PU3LFaZfelaNZ9ng-5" value="User" style="shape=umlLifeline;participant=umlActor;perimeter=lifelinePerimeter;whiteSpace=wrap;html=1;container=1;collapsible=0;recursiveResize=0;verticalAlign=top;spacingTop=36;labelBackgroundColor=#ffffff;outlineConnect=0;" parent="-Lt_0c3Wn9MZElRFij93-1" vertex="1"><mxGeometry x="67" y="70" width="20" height="580" as="geometry"/></mxCell><mxCell id="ldH2PU3LFaZfelaNZ9ng-6" value="" style="html=1;points=[];perimeter=orthogonalPerimeter;" parent="ldH2PU3LFaZfelaNZ9ng-5" vertex="1"><mxGeometry x="5" y="70" width="10" height="510" as="geometry"/></mxCell><mxCell id="ldH2PU3LFaZfelaNZ9ng-7" value=",kubectl" style="shape=umlLifeline;participant=umlEntity;perimeter=lifelinePerimeter;whiteSpace=wrap;html=1;container=1;collapsible=0;recursiveResize=0;verticalAlign=top;spacingTop=36;labelBackgroundColor=#ffffff;outlineConnect=0;" parent="-Lt_0c3Wn9MZElRFij93-1" vertex="1"><mxGeometry x="220" y="70" width="40" height="600" as="geometry"/></mxCell><mxCell id="ldH2PU3LFaZfelaNZ9ng-8" value="" style="html=1;points=[];perimeter=orthogonalPerimeter;" parent="ldH2PU3LFaZfelaNZ9ng-7" vertex="1"><mxGeometry x="15" y="110" width="10" height="40" as="geometry"/></mxCell><mxCell id="ldH2PU3LFaZfelaNZ9ng-9" value="" style="html=1;points=[];perimeter=orthogonalPerimeter;" parent="ldH2PU3LFaZfelaNZ9ng-7" vertex="1"><mxGeometry x="15" y="80" width="10" height="520" as="geometry"/></mxCell><mxCell id="ldH2PU3LFaZfelaNZ9ng-10" value="kubectl display the result&lt;br&gt;and exit" style="html=1;verticalAlign=bottom;endArrow=open;dashed=1;endSize=8;exitX=0;exitY=0.95;entryX=0.9;entryY=0.943;entryDx=0;entryDy=0;entryPerimeter=0;" parent="-Lt_0c3Wn9MZElRFij93-1" edge="1"><mxGeometry relative="1" as="geometry"><mxPoint x="81" y="636.27" as="targetPoint"/><mxPoint x="235" y="637.5499999999988" as="sourcePoint"/></mxGeometry></mxCell><mxCell id="ldH2PU3LFaZfelaNZ9ng-11" value="koomgr" style="shape=umlLifeline;participant=umlEntity;perimeter=lifelinePerimeter;whiteSpace=wrap;html=1;container=1;collapsible=0;recursiveResize=0;verticalAlign=top;spacingTop=36;labelBackgroundColor=#ffffff;outlineConnect=0;" parent="-Lt_0c3Wn9MZElRFij93-1" vertex="1"><mxGeometry x="483" y="70" width="40" height="590" as="geometry"/></mxCell><mxCell id="ldH2PU3LFaZfelaNZ9ng-12" value="" style="html=1;points=[];perimeter=orthogonalPerimeter;" parent="ldH2PU3LFaZfelaNZ9ng-11" vertex="1"><mxGeometry x="15" y="401.05" width="10" height="80" as="geometry"/></mxCell><mxCell id="ldH2PU3LFaZfelaNZ9ng-13" value="" style="html=1;points=[];perimeter=orthogonalPerimeter;" parent="ldH2PU3LFaZfelaNZ9ng-11" vertex="1"><mxGeometry x="15" y="180" width="10" height="40" as="geometry"/></mxCell><mxCell id="ldH2PU3LFaZfelaNZ9ng-14" value="" style="html=1;points=[];perimeter=orthogonalPerimeter;" parent="ldH2PU3LFaZfelaNZ9ng-11" vertex="1"><mxGeometry x="15" y="70" width="10" height="520" as="geometry"/></mxCell><mxCell id="ldH2PU3LFaZfelaNZ9ng-15" value="API Server" style="shape=umlLifeline;participant=umlEntity;perimeter=lifelinePerimeter;whiteSpace=wrap;html=1;container=1;collapsible=0;recursiveResize=0;verticalAlign=top;spacingTop=36;labelBackgroundColor=#ffffff;outlineConnect=0;" parent="-Lt_0c3Wn9MZElRFij93-1" vertex="1"><mxGeometry x="631" y="70" width="40" height="580" as="geometry"/></mxCell><mxCell id="ldH2PU3LFaZfelaNZ9ng-16" value="API Server validate&lt;br&gt;if user is allowed by &lt;br&gt;RBAC to perform &lt;br&gt;the requested action" style="edgeStyle=orthogonalEdgeStyle;html=1;align=left;spacingLeft=2;endArrow=block;rounded=0;entryX=1;entryY=0;" parent="ldH2PU3LFaZfelaNZ9ng-15" target="ldH2PU3LFaZfelaNZ9ng-17" edge="1"><mxGeometry relative="1" as="geometry"><mxPoint x="20" y="519.05" as="sourcePoint"/><Array as="points"><mxPoint x="45" y="519.05"/></Array></mxGeometry></mxCell><mxCell id="ldH2PU3LFaZfelaNZ9ng-17" value="" style="html=1;points=[];perimeter=orthogonalPerimeter;" parent="ldH2PU3LFaZfelaNZ9ng-15" vertex="1"><mxGeometry x="15" y="539.05" width="10" height="40" as="geometry"/></mxCell><mxCell id="ldH2PU3LFaZfelaNZ9ng-18" value="" style="html=1;points=[];perimeter=orthogonalPerimeter;" parent="ldH2PU3LFaZfelaNZ9ng-15" vertex="1"><mxGeometry x="15" y="70" width="10" height="510" as="geometry"/></mxCell><mxCell id="ldH2PU3LFaZfelaNZ9ng-19" value="API Server return the user action result" style="html=1;verticalAlign=bottom;endArrow=open;dashed=1;endSize=8;exitX=0;exitY=0.95;" parent="-Lt_0c3Wn9MZElRFij93-1" edge="1"><mxGeometry x="0.3434" relative="1" as="geometry"><mxPoint x="250" y="624.05" as="targetPoint"/><mxPoint x="646" y="624.05" as="sourcePoint"/><mxPoint as="offset"/></mxGeometry></mxCell><mxCell id="ldH2PU3LFaZfelaNZ9ng-20" value="koocli" style="shape=umlLifeline;participant=umlEntity;perimeter=lifelinePerimeter;whiteSpace=wrap;html=1;container=1;collapsible=0;recursiveResize=0;verticalAlign=top;spacingTop=36;labelBackgroundColor=#ffffff;outlineConnect=0;" parent="-Lt_0c3Wn9MZElRFij93-1" vertex="1"><mxGeometry x="346" y="70" width="40" height="350" as="geometry"/></mxCell><mxCell id="ldH2PU3LFaZfelaNZ9ng-21" value="Is the token still&lt;br&gt;&amp;nbsp;valid against the&amp;nbsp;&lt;br&gt;clientTokenTTL&lt;br&gt;NO in this case" style="edgeStyle=orthogonalEdgeStyle;html=1;align=left;spacingLeft=2;endArrow=block;rounded=0;exitX=1.3;exitY=0.292;exitDx=0;exitDy=0;exitPerimeter=0;" parent="ldH2PU3LFaZfelaNZ9ng-20" edge="1"><mxGeometry x="0.3469" y="-10" relative="1" as="geometry"><mxPoint x="28" y="183" as="sourcePoint"/><Array as="points"><mxPoint x="44" y="183"/><mxPoint x="44" y="200"/></Array><mxPoint x="28" y="200" as="targetPoint"/><mxPoint x="10" y="10" as="offset"/></mxGeometry></mxCell><mxCell id="ldH2PU3LFaZfelaNZ9ng-22" value="koocli check if&lt;br&gt;&amp;nbsp;a token is already&lt;br&gt;present in local&lt;br&gt;user store. &lt;br&gt;YES on this case" style="edgeStyle=orthogonalEdgeStyle;html=1;align=left;spacingLeft=2;endArrow=block;rounded=0;entryX=1;entryY=0;" parent="ldH2PU3LFaZfelaNZ9ng-20" target="ldH2PU3LFaZfelaNZ9ng-23" edge="1"><mxGeometry relative="1" as="geometry"><mxPoint x="20" y="120" as="sourcePoint"/><Array as="points"><mxPoint x="45" y="120"/></Array></mxGeometry></mxCell><mxCell id="ldH2PU3LFaZfelaNZ9ng-23" value="" style="html=1;points=[];perimeter=orthogonalPerimeter;" parent="ldH2PU3LFaZfelaNZ9ng-20" vertex="1"><mxGeometry x="15" y="140" width="10" height="40" as="geometry"/></mxCell><mxCell id="ldH2PU3LFaZfelaNZ9ng-24" value="" style="html=1;points=[];perimeter=orthogonalPerimeter;" parent="ldH2PU3LFaZfelaNZ9ng-20" vertex="1"><mxGeometry x="15" y="100" width="10" height="250" as="geometry"/></mxCell><mxCell id="ldH2PU3LFaZfelaNZ9ng-25" value="kubectl issue the&lt;br&gt;appropriate API call&lt;br&gt;with the provided&lt;br&gt;bearer token" style="html=1;verticalAlign=bottom;endArrow=block;entryX=-0.1;entryY=0.119;entryDx=0;entryDy=0;entryPerimeter=0;" parent="-Lt_0c3Wn9MZElRFij93-1" edge="1"><mxGeometry x="0.675" relative="1" as="geometry"><mxPoint x="245" y="447.05" as="sourcePoint"/><mxPoint x="645" y="448.0919999999999" as="targetPoint"/><mxPoint as="offset"/></mxGeometry></mxCell><mxCell id="4XosDFp2N55dHHyUHDbH-0" value="HTTP GET:&amp;nbsp; &lt;br&gt;validateToken" style="html=1;verticalAlign=bottom;endArrow=block;entryX=0;entryY=0;" parent="-Lt_0c3Wn9MZElRFij93-1" edge="1"><mxGeometry x="0.0792" relative="1" as="geometry"><mxPoint x="368.5" y="329.0000000000007" as="sourcePoint"/><mxPoint x="1" as="offset"/><mxPoint x="501" y="329.0000000000007" as="targetPoint"/></mxGeometry></mxCell><mxCell id="4XosDFp2N55dHHyUHDbH-1" value="koomgr check &lt;br&gt;if token is still valid.&lt;br&gt;Yes in this case" style="edgeStyle=orthogonalEdgeStyle;html=1;align=left;spacingLeft=2;endArrow=block;rounded=0;entryX=1;entryY=0;" parent="-Lt_0c3Wn9MZElRFij93-1" edge="1"><mxGeometry x="0.084" y="2" relative="1" as="geometry"><mxPoint x="505.5" y="343" as="sourcePoint"/><Array as="points"><mxPoint x="531" y="343"/><mxPoint x="531" y="363"/></Array><mxPoint x="511" y="363" as="targetPoint"/><mxPoint as="offset"/></mxGeometry></mxCell></root></mxGraphModel></diagram><diagram id="cC7wpEx26E-XNe-oh53W" name="Sequence4"><mxGraphModel dx="755" dy="552" grid="1" gridSize="10" guides="1" tooltips="1" connect="1" arrows="1" fold="1" page="1" pageScale="1" pageWidth="1169" pageHeight="827" math="0" shadow="0"><root><mxCell id="iwBb0pceTkw_AK6uJU_E-0"/><mxCell id="iwBb0pceTkw_AK6uJU_E-1" parent="iwBb0pceTkw_AK6uJU_E-0"/><mxCell id="FPOOQfH0rW9klIPeFbHV-5" value="" style="html=1;points=[];perimeter=orthogonalPerimeter;" parent="iwBb0pceTkw_AK6uJU_E-1" vertex="1"><mxGeometry x="511" y="593" width="10" height="107" as="geometry"/></mxCell><mxCell id="FPOOQfH0rW9klIPeFbHV-6" value="" style="html=1;points=[];perimeter=orthogonalPerimeter;" parent="iwBb0pceTkw_AK6uJU_E-1" vertex="1"><mxGeometry x="511" y="481" width="10" height="40" as="geometry"/></mxCell><mxCell id="FPOOQfH0rW9klIPeFbHV-9" value="" style="html=1;points=[];perimeter=orthogonalPerimeter;" parent="iwBb0pceTkw_AK6uJU_E-1" vertex="1"><mxGeometry x="659" y="731" width="10" height="40" as="geometry"/></mxCell><mxCell id="asysZXMdonSoQNEgz_S4-0" value="Token not valid Response" style="html=1;verticalAlign=bottom;endArrow=open;dashed=1;endSize=8;exitX=0.2;exitY=0.332;exitDx=0;exitDy=0;exitPerimeter=0;" parent="iwBb0pceTkw_AK6uJU_E-1" edge="1"><mxGeometry x="0.2188" y="-9" relative="1" as="geometry"><mxPoint x="388" y="348" as="targetPoint"/><mxPoint x="516" y="347.9200000000001" as="sourcePoint"/><Array as="points"><mxPoint x="438" y="348"/></Array><mxPoint x="8" y="4" as="offset"/></mxGeometry></mxCell><mxCell id="asysZXMdonSoQNEgz_S4-3" value="User issue a &lt;br&gt;kubctl command &lt;br&gt;(i.e 'kubectl get nodes)" style="html=1;verticalAlign=bottom;endArrow=block;entryX=0;entryY=0;" parent="iwBb0pceTkw_AK6uJU_E-1" edge="1"><mxGeometry relative="1" as="geometry"><mxPoint x="86" y="119" as="sourcePoint"/><mxPoint x="248" y="119.00000000000091" as="targetPoint"/></mxGeometry></mxCell><mxCell id="asysZXMdonSoQNEgz_S4-5" value="kubeclt launch&lt;br&gt;the&amp;nbsp;koocli &lt;br&gt;credential plugin" style="html=1;verticalAlign=bottom;endArrow=block;entryX=-0.1;entryY=0.032;entryDx=0;entryDy=0;entryPerimeter=0;" parent="iwBb0pceTkw_AK6uJU_E-1" target="asysZXMdonSoQNEgz_S4-25" edge="1"><mxGeometry relative="1" as="geometry"><mxPoint x="252.5" y="138.00000000000023" as="sourcePoint"/><mxPoint x="358" y="138.00000000000023" as="targetPoint"/></mxGeometry></mxCell><mxCell id="asysZXMdonSoQNEgz_S4-6" value="User" style="shape=umlLifeline;participant=umlActor;perimeter=lifelinePerimeter;whiteSpace=wrap;html=1;container=1;collapsible=0;recursiveResize=0;verticalAlign=top;spacingTop=36;labelBackgroundColor=#ffffff;outlineConnect=0;" parent="iwBb0pceTkw_AK6uJU_E-1" vertex="1"><mxGeometry x="80" y="30" width="20" height="760" as="geometry"/></mxCell><mxCell id="asysZXMdonSoQNEgz_S4-7" value="" style="html=1;points=[];perimeter=orthogonalPerimeter;" parent="asysZXMdonSoQNEgz_S4-6" vertex="1"><mxGeometry x="5" y="70" width="10" height="690" as="geometry"/></mxCell><mxCell id="asysZXMdonSoQNEgz_S4-8" value=",kubectl" style="shape=umlLifeline;participant=umlEntity;perimeter=lifelinePerimeter;whiteSpace=wrap;html=1;container=1;collapsible=0;recursiveResize=0;verticalAlign=top;spacingTop=36;labelBackgroundColor=#ffffff;outlineConnect=0;" parent="iwBb0pceTkw_AK6uJU_E-1" vertex="1"><mxGeometry x="233" y="30" width="40" height="750" as="geometry"/></mxCell><mxCell id="asysZXMdonSoQNEgz_S4-9" value="" style="html=1;points=[];perimeter=orthogonalPerimeter;" parent="asysZXMdonSoQNEgz_S4-8" vertex="1"><mxGeometry x="15" y="110" width="10" height="40" as="geometry"/></mxCell><mxCell id="asysZXMdonSoQNEgz_S4-10" value="" style="html=1;points=[];perimeter=orthogonalPerimeter;" parent="asysZXMdonSoQNEgz_S4-8" vertex="1"><mxGeometry x="15" y="80" width="10" height="670" as="geometry"/></mxCell><mxCell id="asysZXMdonSoQNEgz_S4-12" value="koomgr" style="shape=umlLifeline;participant=umlEntity;perimeter=lifelinePerimeter;whiteSpace=wrap;html=1;container=1;collapsible=0;recursiveResize=0;verticalAlign=top;spacingTop=36;labelBackgroundColor=#ffffff;outlineConnect=0;" parent="iwBb0pceTkw_AK6uJU_E-1" vertex="1"><mxGeometry x="496" y="30" width="40" height="670" as="geometry"/></mxCell><mxCell id="asysZXMdonSoQNEgz_S4-14" value="" style="html=1;points=[];perimeter=orthogonalPerimeter;" parent="asysZXMdonSoQNEgz_S4-12" vertex="1"><mxGeometry x="15" y="180" width="10" height="40" as="geometry"/></mxCell><mxCell id="asysZXMdonSoQNEgz_S4-15" value="" style="html=1;points=[];perimeter=orthogonalPerimeter;" parent="asysZXMdonSoQNEgz_S4-12" vertex="1"><mxGeometry x="15" y="70" width="10" height="600" as="geometry"/></mxCell><mxCell id="asysZXMdonSoQNEgz_S4-16" value="API Server" style="shape=umlLifeline;participant=umlEntity;perimeter=lifelinePerimeter;whiteSpace=wrap;html=1;container=1;collapsible=0;recursiveResize=0;verticalAlign=top;spacingTop=36;labelBackgroundColor=#ffffff;outlineConnect=0;" parent="iwBb0pceTkw_AK6uJU_E-1" vertex="1"><mxGeometry x="644" y="30" width="40" height="740" as="geometry"/></mxCell><mxCell id="asysZXMdonSoQNEgz_S4-19" value="" style="html=1;points=[];perimeter=orthogonalPerimeter;" parent="asysZXMdonSoQNEgz_S4-16" vertex="1"><mxGeometry x="15" y="70" width="10" height="670" as="geometry"/></mxCell><mxCell id="asysZXMdonSoQNEgz_S4-21" value="koocli" style="shape=umlLifeline;participant=umlEntity;perimeter=lifelinePerimeter;whiteSpace=wrap;html=1;container=1;collapsible=0;recursiveResize=0;verticalAlign=top;spacingTop=36;labelBackgroundColor=#ffffff;outlineConnect=0;" parent="iwBb0pceTkw_AK6uJU_E-1" vertex="1"><mxGeometry x="359" y="30" width="40" height="350" as="geometry"/></mxCell><mxCell id="asysZXMdonSoQNEgz_S4-22" value="Is the token still&lt;br&gt;&amp;nbsp;valid against the&amp;nbsp;&lt;br&gt;clientTokenTTL&lt;br&gt;NO in this case" style="edgeStyle=orthogonalEdgeStyle;html=1;align=left;spacingLeft=2;endArrow=block;rounded=0;exitX=1.3;exitY=0.292;exitDx=0;exitDy=0;exitPerimeter=0;" parent="asysZXMdonSoQNEgz_S4-21" edge="1"><mxGeometry x="0.3469" y="-10" relative="1" as="geometry"><mxPoint x="28" y="183" as="sourcePoint"/><Array as="points"><mxPoint x="44" y="183"/><mxPoint x="44" y="200"/></Array><mxPoint x="28" y="200" as="targetPoint"/><mxPoint x="10" y="10" as="offset"/></mxGeometry></mxCell><mxCell id="asysZXMdonSoQNEgz_S4-23" value="koocli check if&lt;br&gt;&amp;nbsp;a token is already&lt;br&gt;present in local&lt;br&gt;user store. &lt;br&gt;YES on this case" style="edgeStyle=orthogonalEdgeStyle;html=1;align=left;spacingLeft=2;endArrow=block;rounded=0;entryX=1;entryY=0;" parent="asysZXMdonSoQNEgz_S4-21" target="asysZXMdonSoQNEgz_S4-24" edge="1"><mxGeometry relative="1" as="geometry"><mxPoint x="20" y="120" as="sourcePoint"/><Array as="points"><mxPoint x="45" y="120"/></Array></mxGeometry></mxCell><mxCell id="asysZXMdonSoQNEgz_S4-24" value="" style="html=1;points=[];perimeter=orthogonalPerimeter;" parent="asysZXMdonSoQNEgz_S4-21" vertex="1"><mxGeometry x="15" y="140" width="10" height="40" as="geometry"/></mxCell><mxCell id="asysZXMdonSoQNEgz_S4-25" value="" style="html=1;points=[];perimeter=orthogonalPerimeter;" parent="asysZXMdonSoQNEgz_S4-21" vertex="1"><mxGeometry x="15" y="100" width="10" height="250" as="geometry"/></mxCell><mxCell id="asysZXMdonSoQNEgz_S4-27" value="HTTP GET:&amp;nbsp; &lt;br&gt;validateToken" style="html=1;verticalAlign=bottom;endArrow=block;entryX=0;entryY=0;" parent="iwBb0pceTkw_AK6uJU_E-1" edge="1"><mxGeometry x="0.0792" relative="1" as="geometry"><mxPoint x="381.5" y="289.0000000000007" as="sourcePoint"/><mxPoint x="1" as="offset"/><mxPoint x="514" y="289.0000000000007" as="targetPoint"/></mxGeometry></mxCell><mxCell id="asysZXMdonSoQNEgz_S4-28" value="koomgr check &lt;br&gt;if token is still valid.&lt;br&gt;NO in this case" style="edgeStyle=orthogonalEdgeStyle;html=1;align=left;spacingLeft=2;endArrow=block;rounded=0;entryX=1;entryY=0;" parent="iwBb0pceTkw_AK6uJU_E-1" edge="1"><mxGeometry x="0.084" y="2" relative="1" as="geometry"><mxPoint x="518.5" y="303" as="sourcePoint"/><Array as="points"><mxPoint x="544" y="303"/><mxPoint x="544" y="323"/></Array><mxPoint x="524" y="323" as="targetPoint"/><mxPoint as="offset"/></mxGeometry></mxCell><mxCell id="FPOOQfH0rW9klIPeFbHV-0" value="The Webhook Token &lt;br&gt;Authentication&amp;nbsp;issue&lt;br&gt;an HTTP POST with&lt;br&gt;&amp;nbsp;TokenReview command" style="html=1;verticalAlign=bottom;endArrow=block;" parent="iwBb0pceTkw_AK6uJU_E-1" edge="1"><mxGeometry relative="1" as="geometry"><mxPoint x="663.5" y="635" as="sourcePoint"/><mxPoint x="523" y="635" as="targetPoint"/></mxGeometry></mxCell><mxCell id="FPOOQfH0rW9klIPeFbHV-1" value="HTTP GET: getToken" style="html=1;verticalAlign=bottom;endArrow=block;entryX=0;entryY=0;" parent="iwBb0pceTkw_AK6uJU_E-1" edge="1"><mxGeometry x="-0.0264" y="4" relative="1" as="geometry"><mxPoint x="378.5" y="415.0000000000007" as="sourcePoint"/><mxPoint as="offset"/><mxPoint x="511" y="415.0000000000007" as="targetPoint"/></mxGeometry></mxCell><mxCell id="FPOOQfH0rW9klIPeFbHV-2" value="koomgr validate the&lt;br&gt;token and provide &lt;br&gt;user's name and &lt;br&gt;groups in the response." style="html=1;verticalAlign=bottom;endArrow=open;dashed=1;endSize=8;entryX=0.1;entryY=0.586;entryDx=0;entryDy=0;entryPerimeter=0;" parent="iwBb0pceTkw_AK6uJU_E-1" edge="1"><mxGeometry x="0.0105" relative="1" as="geometry"><mxPoint x="660" y="693.5799999999999" as="targetPoint"/><mxPoint x="521" y="693.5799999999999" as="sourcePoint"/><mxPoint as="offset"/></mxGeometry></mxCell><mxCell id="FPOOQfH0rW9klIPeFbHV-3" value="koocli return the&lt;br&gt;token to kubectl &lt;br&gt;by printing on&lt;br&gt;stdout and exit" style="html=1;verticalAlign=bottom;endArrow=open;dashed=1;endSize=8;entryX=1;entryY=0.415;entryDx=0;entryDy=0;entryPerimeter=0;" parent="iwBb0pceTkw_AK6uJU_E-1" edge="1"><mxGeometry x="0.0871" y="-2" relative="1" as="geometry"><mxPoint x="258" y="532.95" as="targetPoint"/><mxPoint x="378.5" y="532.95" as="sourcePoint"/><mxPoint as="offset"/></mxGeometry></mxCell><mxCell id="FPOOQfH0rW9klIPeFbHV-4" value="kubectl display the result&lt;br&gt;and exit" style="html=1;verticalAlign=bottom;endArrow=open;dashed=1;endSize=8;exitX=0;exitY=0.95;entryX=0.9;entryY=0.943;entryDx=0;entryDy=0;entryPerimeter=0;" parent="iwBb0pceTkw_AK6uJU_E-1" edge="1"><mxGeometry relative="1" as="geometry"><mxPoint x="94" y="758.22" as="targetPoint"/><mxPoint x="248" y="759.4999999999989" as="sourcePoint"/></mxGeometry></mxCell><mxCell id="FPOOQfH0rW9klIPeFbHV-7" value="koomgr&amp;nbsp;check&amp;nbsp;user's&lt;br&gt;credential&amp;nbsp;and grant&lt;br&gt;a&amp;nbsp;new bearer&lt;br&gt;token" style="edgeStyle=orthogonalEdgeStyle;html=1;align=left;spacingLeft=2;endArrow=block;rounded=0;entryX=1;entryY=0;" parent="iwBb0pceTkw_AK6uJU_E-1" edge="1"><mxGeometry x="0.084" y="2" relative="1" as="geometry"><mxPoint x="515.5" y="431" as="sourcePoint"/><Array as="points"><mxPoint x="541" y="431"/><mxPoint x="541" y="451"/></Array><mxPoint x="521" y="451" as="targetPoint"/><mxPoint as="offset"/></mxGeometry></mxCell><mxCell id="FPOOQfH0rW9klIPeFbHV-8" value="API Server validate&lt;br&gt;if user is allowed by &lt;br&gt;RBAC to perform &lt;br&gt;the requested action" style="edgeStyle=orthogonalEdgeStyle;html=1;align=left;spacingLeft=2;endArrow=block;rounded=0;entryX=1;entryY=0;" parent="iwBb0pceTkw_AK6uJU_E-1" target="FPOOQfH0rW9klIPeFbHV-9" edge="1"><mxGeometry relative="1" as="geometry"><mxPoint x="664" y="711" as="sourcePoint"/><Array as="points"><mxPoint x="689" y="711"/></Array></mxGeometry></mxCell><mxCell id="FPOOQfH0rW9klIPeFbHV-10" value="User provides its credential" style="html=1;verticalAlign=bottom;endArrow=open;dashed=1;endSize=8;exitX=1.4;exitY=0.304;exitDx=0;exitDy=0;exitPerimeter=0;" parent="iwBb0pceTkw_AK6uJU_E-1" edge="1"><mxGeometry x="-0.4599" relative="1" as="geometry"><mxPoint x="373" y="396" as="targetPoint"/><mxPoint x="99" y="395.79999999999995" as="sourcePoint"/><mxPoint as="offset"/></mxGeometry></mxCell><mxCell id="FPOOQfH0rW9klIPeFbHV-11" value="Token in&lt;br&gt;HTTP Response" style="html=1;verticalAlign=bottom;endArrow=open;dashed=1;endSize=8;exitX=0.2;exitY=0.332;exitDx=0;exitDy=0;exitPerimeter=0;" parent="iwBb0pceTkw_AK6uJU_E-1" edge="1"><mxGeometry x="0.2188" y="-9" relative="1" as="geometry"><mxPoint x="385" y="476" as="targetPoint"/><mxPoint x="513" y="475.9200000000001" as="sourcePoint"/><Array as="points"><mxPoint x="435" y="476"/></Array><mxPoint x="8" y="4" as="offset"/></mxGeometry></mxCell><mxCell id="FPOOQfH0rW9klIPeFbHV-12" value="kubectl issue the&lt;br&gt;appropriate API call&lt;br&gt;with the provided&lt;br&gt;bearer token" style="html=1;verticalAlign=bottom;endArrow=block;entryX=-0.1;entryY=0.119;entryDx=0;entryDy=0;entryPerimeter=0;" parent="iwBb0pceTkw_AK6uJU_E-1" edge="1"><mxGeometry x="0.675" relative="1" as="geometry"><mxPoint x="258" y="569" as="sourcePoint"/><mxPoint x="658" y="570.0419999999999" as="targetPoint"/><mxPoint as="offset"/></mxGeometry></mxCell><mxCell id="FPOOQfH0rW9klIPeFbHV-13" value="API Server return the user action result" style="html=1;verticalAlign=bottom;endArrow=open;dashed=1;endSize=8;exitX=0;exitY=0.95;" parent="iwBb0pceTkw_AK6uJU_E-1" edge="1"><mxGeometry x="0.3434" relative="1" as="geometry"><mxPoint x="263" y="746" as="targetPoint"/><mxPoint x="659" y="746" as="sourcePoint"/><mxPoint as="offset"/></mxGeometry></mxCell><mxCell id="FPOOQfH0rW9klIPeFbHV-14" value="koocli prompt for login &lt;br&gt;and password" style="html=1;verticalAlign=bottom;endArrow=block;entryX=1.1;entryY=0.209;entryDx=0;entryDy=0;entryPerimeter=0;" parent="iwBb0pceTkw_AK6uJU_E-1" edge="1"><mxGeometry x="0.4549" y="-4" relative="1" as="geometry"><mxPoint x="378.5" y="366.76" as="sourcePoint"/><mxPoint x="96" y="366.76" as="targetPoint"/><mxPoint x="1" as="offset"/></mxGeometry></mxCell><mxCell id="FPOOQfH0rW9klIPeFbHV-15" value="" style="html=1;points=[];perimeter=orthogonalPerimeter;" parent="iwBb0pceTkw_AK6uJU_E-1" vertex="1"><mxGeometry x="374" y="130" width="10" height="420" as="geometry"/></mxCell></root></mxGraphModel></diagram></mxfile>